{"title":"Taylor Swift ft.Kendrick Lamar - Bad Blood (2015.Pop)","uid":12116373,"size":95036046,"categoryP":"video","categoryS":"music_videos","magnet":"?xt=urn:btih:eb04556fcffe08c54f282f875c7304b96f60c5f9&amp;dn=Taylor+Swift+ft.Kendrick+Lamar+-+Bad+Blood+%282015.Pop%29&amp;tr=udp%3A%2F%2Ftracker.openbittorrent.com%3A80&amp;tr=udp%3A%2F%2Fopen.demonii.com%3A1337&amp;tr=udp%3A%2F%2Ftracker.coppersurfer.tk%3A6969&amp;tr=udp%3A%2F%2Fexodus.desync.com%3A6969","seeders":1,"leechers":0,"uploader":"MeRaDil","files":1,"time":1436720567,"description":"TAYLOR SWIFT ft.KENDRICK LAMAR - BAD BLOOD\n\n &lt;a href=&quot;\nhttp://gifyu.com/images/TaylorSwift-1.png&quot; rel=&quot;nofollow&quot; target=&quot;_NEW&quot;&gt;\nhttp://gifyu.com/images/TaylorSwift-1.png&lt;/a&gt;\n &lt;a href=&quot;\nhttp://gifyu.com/images/BadBlood.png&quot; rel=&quot;nofollow&quot; target=&quot;_NEW&quot;&gt;\nhttp://gifyu.com/images/BadBlood.png&lt;/a&gt;\n &lt;a href=&quot;\nhttp://gifyu.com/images/BadBlood1.png&quot; rel=&quot;nofollow&quot; target=&quot;_NEW&quot;&gt;\nhttp://gifyu.com/images/BadBlood1.png&lt;/a&gt;\n\n\nGeneral\nTaylor Swift ft. Kendrick Lamar - Bad Blood\nFormat                                   : MPEG-4\nFormat profile                           : Base Media\nCodec ID                                 : isom\nFile size                                : 90.6 MiB\nDuration                                 : 4mn 4s\nOverall bit rate                         : 3 104 Kbps\nMusicVid name                            : Bad Blood\nAlbum                                    : 1989\nPerformer                                : Taylor Swift ft. Kendrick Lamar\nGenre                                    : Pop\nContentType                              : Music Video\nRecorded date                            : 2015\nCover                                    : Yes\nRating                                   : ****\nMake                                     : MeRaDil\nArtist url                               : http://taylorswift.com\nRelease                                  : USA . may 17 . 2015\nPart_ID                                  : Bad Blood\n\nVideo\nID                                       : 1\nFormat                                   : AVC\nFormat/Info                              : Advanced Video Codec\nFormat profile                           : &lt;a class=&quot;__cf_email__&quot; href=&quot;/cdn-cgi/l/email-protection&quot; data-cfemail=&quot;a8e0c1cfc0e8e49c8698&quot;&gt;[email&amp;#160;protected]&lt;/a&gt;&lt;script data-cfhash='f9e31' type=&quot;text/javascript&quot;&gt;\n/* &lt;![CDATA[ */!function(){try{var t=&quot;currentScript&quot;in document?document.currentScript:function(){for(var t=document.getElementsByTagName(&quot;script&quot;),e=t.length;e--;)if(t[e].getAttribute(&quot;data-cfhash&quot;))return t[e]}();if(t&amp;&amp;t.previousSibling){var e,r,n,i,c=t.previousSibling,a=c.getAttribute(&quot;data-cfemail&quot;);if(a){for(e=&quot;&quot;,r=parseInt(a.substr(0,2),16),n=2;a.length-n;n+=2)i=parseInt(a.substr(n,2),16)^r,e+=String.fromCharCode(i);e=document.createTextNode(e),c.parentNode.replaceChild(e,c)}t.parentNode.removeChild(t);}}catch(u){}}()/* ]]&gt; */&lt;/script&gt;\nFormat settings, CABAC                   : Yes\nFormat settings, ReFrames                : 2 frames\nCodec ID                                 : avc1\nCodec ID/Info                            : Advanced Video Coding\nDuration                                 : 4mn 4s\nBit rate                                 : 2 841 Kbps\nWidth                                    : 1 920 pixels\nHeight                                   : 1 080 pixels\nDisplay aspect ratio                     : 16:9\nFrame rate mode                          : Variable\nFrame rate                               : 23.976 fps\nMinimum frame rate                       : 23.974 fps\nMaximum frame rate                       : 23.981 fps\nColor space                              : YUV\nChroma subsampling                       : 4:2:0\nBit depth                                : 8 bits\nScan type                                : Progressive\nBits/(Pixel*Frame)                       : 0.057\nStream size                              : 82.9 MiB (91%)\n\nAudio\nID                                       : 2\nFormat                                   : AAC\nFormat/Info                              : Advanced Audio Codec\nFormat profile                           : LC\nCodec ID                                 : 40\nDuration                                 : 4mn 4s\nBit rate mode                            : Constant\nBit rate                                 : 256 Kbps\nChannel(s)                               : 2 channels\nChannel positions                        : Front: L R\nSampling rate                            : 44.1 KHz\nCompression mode                         : Lossy\nStream size                              : 7.48 MiB (8%)\n &lt;a href=&quot;\nhttps://thepiratebay.se/user/MeRaDil&quot; rel=&quot;nofollow&quot; target=&quot;_NEW&quot;&gt;\nhttps://thepiratebay.se/user/MeRaDil&lt;/a&gt;\n\nTaylor Swift * 1989 * Kendrick Lamar * Pop * Promo","torrent":{"xt":"urn:btih:eb04556fcffe08c54f282f875c7304b96f60c5f9","amp;dn":"Taylor+Swift+ft.Kendrick+Lamar+-+Bad+Blood+%282015.Pop%29","amp;tr":["udp%3A%2F%2Ftracker.openbittorrent.com%3A80","udp%3A%2F%2Fopen.demonii.com%3A1337","udp%3A%2F%2Ftracker.coppersurfer.tk%3A6969","udp%3A%2F%2Fexodus.desync.com%3A6969"],"infoHash":"eb04556fcffe08c54f282f875c7304b96f60c5f9","infoHashBuffer":{"type":"Buffer","data":[235,4,85,111,207,254,8,197,79,40,47,135,92,115,4,185,111,96,197,249]},"announce":[],"urlList":[]}}